<?xml version="1.0" encoding="UTF-8"?>
<svg id="uuid-6252bd93-9204-4b2c-80a5-5d03e913142b" data-name="Capa 2" xmlns="http://www.w3.org/2000/svg" viewBox="0 0 702.93 801.16">
  <g id="uuid-18fc4719-8f9f-4e0a-9884-f0479cc8f5c7" data-name="Capa 1">
    <path d="m271.29,183.15c-20.33-25.29-27.87-53.92-24.66-85.27,1.86-18.07,6.57-35.56,17.89-50.26.6.1,1.21.2,1.81.3.88,3.97,1.67,7.95,2.66,11.89,2.38,9.48,6.23,18.23,12.94,25.52,8.39,9.12,18.99,11.68,27.69,6.68,10.13-5.83,15.12-18.44,11.64-29.74-4.38-14.24-14.86-23.77-25.74-32.95-2.65-2.24-5.55-4.19-8.77-6.6,6.71-6.05,14.28-10.03,22.26-13.15,30.43-11.89,61.22-13.01,92-1.66,6.1,2.25,11.75,6.19,16.97,10.18,4.58,3.51,3.99,5.42-.96,8.42-12.55,7.62-23.21,17.09-27.25,31.76-1.4,5.07-1.74,11.01-.58,16.1,3.17,13.89,18.57,19.35,29.76,10.49,5.5-4.35,10.11-10.08,14.28-15.81,4.09-5.62,7.1-12.02,10.58-18.08.98-1.7,1.95-3.4,3.78-6.59,2.24,3.88,4.34,6.54,5.43,9.58,4.81,13.36,5.27,27.36,5.26,41.36,0,19.7-1.41,39.26-8.47,57.92-2.94,7.77-6.53,15.24-13.69,21.01-1.43-4.81-2.2-9.41-4.13-13.46-2.83-5.94-5.77-12.09-9.95-17.06-5.83-6.94-13.92-9.69-22.97-6.92-8.67,2.65-11.85,9.96-12.95,17.97-2.43,17.58,1.16,34.55,7.58,50.75,4.9,12.35,15.79,19.02,27.46,24.1,15.41,6.71,31.78,9.56,48.39,11.1,25.14,2.33,50.29,1.66,75.33-1.13,16.5-1.84,32.85-4.92,49.29-7.26,18.93-2.7,37.84-3.13,56.25,3,29.33,9.75,44.63,31.23,50.67,60.72,4.42,21.57.26,42.07-6.72,62.18-17.71,50.99-36.15,101.73-53.6,152.81-12.23,35.8-23.46,71.96-34.89,108.03-11.39,35.97-7.45,71.24,5.48,106.01,2.02,5.44,3.99,10.94,5.4,16.56,1.76,7.02-.62,9.2-7.52,7-37.04-11.79-75.24-16.38-113.82-19.07-42.96-2.99-85.92-2.4-128.81.37-64.08,4.14-125.09,20.51-183,48.33-14.99,7.2-29.85,14.7-44.95,21.68-2.87,1.33-6.58.83-9.9,1.17.06-3.06-.47-6.27.27-9.15,7.08-27.54,6.67-55.33,3.26-83.27-1.63-13.37-2.31-26.93-4.96-40.09-4.02-19.95-14.19-37.58-23.85-55.22-17.74-32.4-36.27-64.37-53.7-96.93-19.65-36.71-36.72-74.56-45.3-115.63-5.95-28.44-7.1-56.88,3.61-84.55,14.6-37.73,41.84-60.13,82.1-66.61,28.05-4.51,56.15-2.37,84.24-1.38,37.6,1.33,74.92.88,110.32-14.44,16.87-7.3,32.06-16.91,43.56-31.64,7.01-8.97,11.53-18.98,13.37-30.22,1.63-9.99-9.58-27.51-19.31-29.92-6.38-1.58-12.07.82-16.73,4.65-6.92,5.68-13.5,11.85-19.67,18.34-5.13,5.41-9.46,11.58-14.68,18.06Zm-5.28,128.31c-3.29.39-4.91.52-6.51.78-19.02,3.06-38.13,4.03-57.16.68-15.52-2.74-30.86-6.52-46.34-9.57-13.19-2.6-26.44-2.85-39.63.22-18.97,4.42-33.67,14.97-43.57,31.64-12.39,20.85-18,43.69-15.53,67.78,1.03,10.04,4.73,20.03,8.54,29.51,25.5,63.43,59.4,122.33,97.79,178.7,7.92,11.63,17.37,22.3,26.88,32.72,5.35,5.87,11.1,5.46,16.53-.38,4.49-4.83,8.24-10.41,11.89-15.94,7.69-11.65,14.53-23.91,22.79-35.13,8.26-11.23,19.83-17.05,34.28-15.43,6.6.74,13.18,1.67,19.77,2.52,9.02,1.16,17.95,3.69,27.14.58,8.27-2.8,9.28-3.42,9.09-12.17-.43-19.8-1.03-39.61-1.87-59.4-1.11-26.22-9.49-49.74-26.41-70.12-10.98-13.23-20.6-27.36-26.74-43.64-7.92-21-10.9-42.77-10.93-65.06,0-5.79,0-11.57,0-18.3Zm122.95,230.99c1.49,9.8,2.81,22.53,5.56,34.94,1.71,7.76,7.66,10.82,15.37,8.8,6.34-1.66,12.5-4.37,18.41-7.27,7.01-3.45,13.51-7.9,20.49-11.41,22.52-11.33,41.86-8.87,60.94,7.57,4.03,3.47,7.82,7.23,11.63,10.95,7.5,7.33,14.48,15.26,22.52,21.94,10.37,8.62,18.58,7.33,25.76-4.08,6.45-10.24,12.5-20.9,17.34-31.97,27.1-62.05,47.53-126.14,56.7-193.46,2.33-17.11,1.56-34.21-3.71-50.87-9.13-28.85-31.44-44.7-61.58-43.99-16.67.4-32.46,5.02-48.3,9.45-20.48,5.72-40.82,12-62.31,12.9-1.42.06-3.71,2.38-3.95,3.91-.95,6.06-1.4,12.22-1.76,18.36-1.21,20.33-4.31,40.29-10.73,59.7-7.88,23.85-21.53,44.54-35.3,65.19-9.03,13.55-19.49,26.64-22.37,43.08-2.49,14.21-3.01,28.76-4.69,46.25Z"/>
  </g>
</svg>