<?xml version="1.0" encoding="UTF-8"?>
<svg id="uuid-b04a28e7-e099-4242-893e-38104f45eb88" data-name="Capa 2" xmlns="http://www.w3.org/2000/svg" viewBox="0 0 272.37 255.26">
  <g id="uuid-26850884-e8dd-4285-bb3b-d6942cb0c004" data-name="Capa 1">
    <path d="m68.56,254.93c-2.97,0-5.94-.05-8.91,0-9.06.18-17.5-2.3-25.7-5.88-10.6-4.63-18.8-12.04-24.76-21.86-5.12-8.42-8.04-17.6-8.58-27.49-.16-3.02-.7-6.04-.6-9.05.33-10.05,1.93-19.92,4.73-29.59,3.82-13.17,9.07-25.79,16.11-37.5,6.18-10.27,12.99-20.22,20.27-29.74,6.28-8.22,13.36-15.88,20.54-23.36,9.81-10.22,20.48-19.56,32.14-27.62,9.65-6.67,19.43-13.25,29.6-19.06,15.2-8.69,31.38-15.16,48.42-19.5,13.45-3.42,27.06-5.01,40.84-3.95,18.05,1.39,34.16,7.42,46.08,21.87,6.23,7.56,9.82,16.36,11.99,25.91,1.76,7.76,1.99,15.6,1.2,23.3-.86,8.33-2.71,16.64-4.91,24.75-4.01,14.85-10.82,28.55-18.76,41.68-8.29,13.71-17.89,26.48-28.69,38.31-12.57,13.76-26.34,26.23-41.39,37.24-17.96,13.13-37.08,24.17-58.02,31.92-11.02,4.08-22.19,7.54-33.89,8.88-5.86.67-11.8.74-17.7,1.09,0-.11-.01-.22-.02-.33Zm-40.97-70.68c1.38,5.6,2.33,10.68,3.89,15.56,6.24,19.53,20.06,31,39.59,35.54,6.37,1.48,13.17,1.33,19.79,1.46,7,.14,13.86-1.21,20.67-2.91,12.44-3.09,24.13-7.97,35.31-14.14,14.02-7.74,26.82-17.16,38.51-28.13,10.39-9.75,19.61-20.51,27.59-32.25,8.2-12.07,14.87-25.01,19.69-38.84,3.37-9.66,6.1-19.52,6.84-29.68.57-7.84.29-15.83-.57-23.65-1.38-12.55-6.21-23.7-15.39-32.78-7.43-7.35-16.4-11.79-26.4-13.9-6.7-1.41-13.59-2.52-20.55-1.46-6.64,1.01-13.35,1.68-19.9,3.09-11.94,2.57-23.06,7.44-33.8,13.15-13.27,7.05-25.39,15.76-36.73,25.59-1.37,1.18-2.63,2.48-4.34,4.12,1.31.06,1.94.11,2.58.11,35.39,0,70.79.01,106.18-.01,5.31,0,10.52.59,15.42,2.7,7.04,3.03,12.36,7.77,11.71,17.14-.35,5.03-2.11,9.64-4.82,13.82-8.43,13-20.22,20.77-35.77,22.54-1.1.12-2.15.63-3.84,1.14,1.15.73,1.73,1.34,2.43,1.52,8.58,2.13,13.88,10.8,11.55,20.19-2.4,9.68-8.02,17.42-15.95,23.43-6.47,4.9-13.71,8.28-21.36,10.97-9.6,3.38-19.39,5.65-29.59,5.67-29.62.05-59.24.02-88.85.02-.97,0-1.94,0-3.87,0Zm56.15-54.54c-14.77,0-29.53.03-44.3-.04-1.88,0-2.81.62-3.43,2.37-3.56,10-6.39,20.16-7.62,30.74-.24,2.04.2,2.56,2.23,2.55,22.03-.06,44.05-.02,66.08-.04,10.08-.01,19.5-2.3,27.91-8.16,7.08-4.94,10.53-11.66,9.86-20.24-.36-4.58-2.22-7.31-7.41-7.25-14.43.18-28.87.06-43.31.07Zm-39.51-15.81c1.44-.07,2.48-.17,3.52-.17,26.88,0,53.75-.03,80.63.01,7.43.01,14.14-1.99,19.94-6.66,6.25-5.04,10.58-11.02,9.05-19.69-.78-4.45-3.37-6.73-7.96-6.73-26.79-.01-53.59-.03-80.38.06-1.18,0-2.78.74-3.48,1.66-5.29,7.02-10.52,14.09-15.53,21.32-2.17,3.12-3.79,6.63-5.78,10.2Z"/>
  </g>
</svg>