<svg xmlns="http://www.w3.org/2000/svg" viewBox="0 0 349.28 71.41"><defs><style>.a{fill:#e9473f;}</style></defs><title>NOX logo - Brandlogos.net</title><path class="a" d="M414,493.06H360.42V547.7H337.36V476.3h89.55c12.63,0,20.31,8.32,20.31,18V547.7h-22V505.32c0-6.87-3.59-12.26-11.27-12.26" transform="translate(-337.36 -476.3)"/><path class="a" d="M549.66,547.7H458.75V494.43c0-11,6.53-18.13,19.78-18.13h89.53V534c0,7.33-6.69,13.73-18.4,13.73m-3.3-26.09V493.06H491.43c-5.95,0-9.61,4-9.61,9.06v29.1h53.57c5.26,0,11-3.15,11-9.61" transform="translate(-337.36 -476.3)"/><path class="a" d="M658.89,502a2.06,2.06,0,0,0,2.36-.25l24.68-22a2,2,0,0,0-1.27-3.49H665.71c-1.77,0-4.5,1.43-6.33,2.57-4.81,3-13.55,8.37-22.06,13.62l13.61,8.39a11.21,11.21,0,0,1,8,1.11" transform="translate(-337.36 -476.3)"/><path class="a" d="M645.34,504,632,495.78c-10-6.15-21.56-13.28-27.39-16.91-1.83-1.15-4.56-2.58-6.33-2.58H579.32a2,2,0,0,0-1.27,3.49L612,510a2.33,2.33,0,0,1,0,3.91l-34,30.26a2,2,0,0,0,1.27,3.49h18.95c1.77,0,4.5-1.43,6.33-2.58,5.83-3.63,17.41-10.76,27.39-16.9l13.47-8.33a11.3,11.3,0,0,1-.11-15.86" transform="translate(-337.36 -476.3)"/><polygon class="a" points="313.64 1.17 294.63 1.17 275.61 1.17 294.63 12.9 313.64 1.17"/><path class="a" d="M685.92,544.22,661.1,522.13a2,2,0,0,0-2.33-.25,11.25,11.25,0,0,1-7.61,1.09l-13.85,8.54c8.52,5.24,17.25,10.62,22.06,13.62,1.83,1.14,4.55,2.57,6.33,2.57h18.95a2,2,0,0,0,1.27-3.49" transform="translate(-337.36 -476.3)"/><polygon class="a" points="275.61 70.24 294.63 70.24 313.64 70.24 294.63 58.51 275.61 70.24"/></svg>