<svg xmlns="http://www.w3.org/2000/svg" fill="none" viewBox="0 0 167 32" height="32" width="167">
<path fill="#111212" d="M2.80579 23.0015H34.1198C34.1198 23.0015 36.0124 23.0635 36.5 22.5718C37.4339 21.6255 36.0331 20.3776 36.0331 20.3776L27.4504 14.8238C27.4504 14.8238 17 8.96846 20.3141 4.3197C23.624 -0.337322 34.1157 0.00565305 34.1157 0.00565305H77.8264C77.8264 0.00565305 79.3967 -0.122446 79.3967 2.63375C79.3967 5.38995 77.9959 5.2164 77.9959 5.2164H44.7355C44.7355 5.2164 43.095 5.31144 42.6529 6.0759C41.8884 7.41061 43.8843 8.44367 43.8843 8.44367L57.5207 17.0139C57.5207 17.0139 66.2231 22.6916 60.7479 27.6048C56.1405 31.7412 46.5579 31.3073 46.5579 31.3073H2.88843C2.88843 31.3073 0.723145 31.3528 0.723145 26.8734C0.723145 22.3941 2.80579 22.9974 2.80579 22.9974M65.9628 31.3734C65.3512 31.3734 65.0413 31.0552 65.0413 30.4189V8.15441C65.0413 7.54284 65.3471 7.23293 65.9628 7.23293H78.1653C78.7769 7.23293 79.0868 7.53871 79.0868 8.15441V30.4189C79.0868 31.0552 78.781 31.3734 78.1653 31.3734H65.9628ZM94.3843 32.0015C92.2149 32.0015 90.3636 31.7412 88.8306 31.2247C87.2975 30.704 86.0496 29.9643 85.0826 28.9933C84.1157 28.0263 83.4091 26.8569 82.9587 25.4891C82.5331 24.1214 82.3223 22.1875 82.3223 20.4891V8.38582C82.3223 7.77012 82.6281 7.46433 83.2438 7.46433H96.4711C97.0826 7.46433 97.3926 7.77012 97.3926 8.38582V20.4891C97.3926 22.6585 97.8512 24.7577 98.7727 25.985C99.6901 27.2123 101.153 27.828 103.157 27.828H109.24C111.269 27.828 112.752 27.2164 113.694 25.985C114.661 24.7577 115.145 22.6585 115.145 20.4891V8.38582C115.145 7.77012 115.463 7.46433 116.099 7.46433H120.343C120.979 7.46433 121.298 7.77012 121.298 8.38582V20.4891C121.298 22.047 121.05 23.8982 120.554 25.2412C120.083 26.5842 119.351 27.766 118.359 28.7825C117.368 29.7742 116.107 30.5635 114.574 31.1544C113.066 31.7205 111.285 32.0015 109.236 32.0015H94.3802H94.3843ZM151.293 31.3734C150.517 31.3734 149.831 31.1131 149.244 30.5966L139.731 22.1007L127.955 30.6668C127.624 30.9023 127.281 31.08 126.93 31.1957C126.579 31.3156 126.161 31.3734 125.69 31.3734H123.107C122.612 31.3734 122.364 31.1833 122.364 30.8073C122.364 30.5718 122.492 30.3486 122.752 30.1337L137.079 19.6585L124.665 8.58003C124.43 8.36929 124.31 8.13375 124.31 7.87342C124.31 7.68334 124.38 7.53045 124.521 7.41474C124.686 7.29491 124.921 7.23706 125.227 7.23706H139.975C140.401 7.23706 140.777 7.30731 141.107 7.4478C141.438 7.56764 141.744 7.75359 142.029 8.01392L148.607 13.923L156.884 7.93954C157.215 7.704 157.554 7.52631 157.909 7.41061C158.264 7.29078 158.678 7.23293 159.149 7.23293H161.731C162.227 7.23293 162.475 7.42301 162.475 7.79904C162.475 8.03458 162.343 8.24532 162.087 8.4354L151.298 16.328L166.612 30.0263C166.872 30.2371 167 30.4643 167 30.6999C167 31.1503 166.694 31.3734 166.079 31.3734H151.293Z" clip-rule="evenodd" fill-rule="evenodd"></path>
</svg>
