<?xml version="1.0" encoding="UTF-8"?>
<svg id="uuid-cdbcda25-8a6f-4a58-9ed2-00e221713bf1" data-name="Capa 2" xmlns="http://www.w3.org/2000/svg" viewBox="0 0 284.75 406.59">
  <g id="uuid-d419eaf1-6bc1-4e28-b1e3-81b12a4ed0e1" data-name="Capa 1">
    <path d="m0,174.64C133.19,190.54,162.62,88.51,205.77,0c-5.65,26.59-12.64,52.99-16.68,79.82-7.76,51.6-1.25,99.55,45.61,132.11,14.43,10.03,31.71,15.97,50.05,27.67-133.41-22.42-171.52,72.21-209.51,166.98-1.83-.82-3.67-1.64-5.5-2.46,2.11-10.07,4.77-20.06,6.21-30.23,4.27-30.03,11.17-60.11,11.33-90.2.26-47.07-23.02-81.4-67.13-100.31-6.73-2.89-13.44-5.83-20.17-8.74Z"/>
  </g>
</svg>