<?xml version="1.0" encoding="UTF-8"?>
<svg id="uuid-c5c23003-635a-4767-bbb2-5c8b75aa5fce" data-name="Capa 2" xmlns="http://www.w3.org/2000/svg" viewBox="0 0 320.51 266.4">
  <g id="uuid-aeb0309b-82e7-4b53-8805-38e2b8d1f05f" data-name="Capa 1">
    <g>
      <path d="m153.91,212.45c2.4,2.13,4.75,4.22,7.18,6.38,2-1.68,4.01-3.28,5.91-4.99,13.57-12.23,27.11-24.49,40.66-36.74,5.59-5.06,11.14-10.18,16.8-15.16,3.4-3,7.38-5.14,11.49-7.02,10.23-4.68,20.98-6.35,32.11-5,15.89,1.93,29.09,9.04,39.32,21.37,8.66,10.45,13.32,22.57,13.13,36.14-.34,23.86-11.46,41.57-32.6,52.32-18.12,9.22-36.68,8.65-54.88-.42-6.36-3.17-11.85-7.57-16.63-12.83-.21-.23-.4-.48-.68-.82,12.64-11.06,25.25-22.08,37.68-32.95,1.4,1.38,2.54,2.9,4.04,3.9,3.66,2.46,7.62,2.57,11.47.45,3.74-2.05,5.55-5.38,5.49-9.63-.12-7.52-8.9-12.76-15.5-9.16-1.85,1.01-3.35,2.66-4.98,4.05-14.11,12.05-28.22,24.09-42.3,36.16-4.77,4.09-9.37,8.4-14.22,12.4-9.75,8.04-21.04,12.5-33.56,13.98-7.36.87-14.64.54-21.77-1.55-9.82-2.87-18.12-8.17-24.89-15.84-.33-.37-.63-.77-1.04-1.26,12.6-11.27,25.17-22.5,37.78-33.77Z"/>
      <path d="m204.21,169.14c-12.42,10.77-24.64,21.38-36.89,32.01-4.53-4.46-9.01-8.82-13.45-13.23-20.05-19.94-40.09-39.88-60.13-59.83-4.23-4.22-8.3-8.57-11.48-13.69-5.04-8.11-8.33-16.9-10.35-26.18-1.18-5.43-1.92-10.88-1.57-16.48.69-11.11,3.58-21.56,9.07-31.22,8.46-14.87,20.44-26.08,35.87-33.5,6.49-3.12,13.45-4.81,20.54-5.85,4.02-.59,8.1-.9,12.16-1.11,7.8-.39,15.28,1.26,22.54,3.99,14.25,5.36,26.63,13.71,37.81,23.94.4.36.78.74,1.13,1.15,1.48,1.68,2.14,3.65,1.28,5.75-.78,1.93-1.67,3.92-2.94,5.54-1.85,2.35-4.06,4.4-6.17,6.54-.24.24-.87.39-1.16.25-5.18-2.39-10.79-2.97-16.32-3.8-9.3-1.39-18.64-2.36-28.04-2.86-1.63-.09-3.25-.5-4.84-.87-2.43-.57-4.19-2.07-5.44-4.21-.7-1.2-1.44-2.39-2.12-3.6-1.52-2.74-3.93-3.98-6.95-4.39-3.65-.5-6.91.34-10.01,2.29-6.58,4.15-11.84,9.39-14.55,16.88-2.53,7-2.35,14.03-.26,21.07,2.74,9.28,7.74,17.27,14.47,24.13,13.94,14.21,27.93,28.39,42.02,42.45,11.52,11.49,23.22,22.78,34.85,34.16.25.25.57.42.94.68Zm-19.98-144.36c1.06.03,1.35-.3.99-1.01-.65-1.3-1.47-2.52-2.18-3.8-1.66-3-4.21-4.74-7.52-5.55-1.9-.47-3.77-1.1-5.63-1.72-1.17-.39-1.95-1.17-2.38-2.41-.34-.99-.9-1.94-1.52-2.8-.51-.69-1.14-.53-1.31.27-.76,3.58.05,7.78,4.25,9.77,1.12.53,2.32.92,3.49,1.37,3.32,1.29,6.79,2.24,9.56,4.66.7.61,1.67.91,2.24,1.21Z"/>
      <path d="m104.92,170c-12.67,11.48-25.25,22.88-37.91,34.36-.26-.38-.48-.73-.72-1.06-2.74-3.81-6.47-5.52-11.08-4.7-4.56.81-7.53,3.6-8.68,8.16-1.46,5.8,2.69,11.91,8.7,12.81,3.15.47,5.89-.13,8.42-2.36,13.39-11.84,26.89-23.56,40.35-35.32,5.22-4.56,10.44-9.13,15.66-13.69.19-.16.39-.31.68-.55,11.49,10.95,22.96,21.89,34.51,32.89-1.64,1.5-3.22,2.94-4.8,4.37-16.31,14.8-32.64,29.56-48.91,44.41-4.43,4.04-8.98,7.84-14.41,10.5-12.37,6.05-25.34,7.89-38.81,5.19-17.11-3.43-30.42-12.6-39.57-27.5-12.12-19.73-10.93-45.12,2.91-63.69,9.8-13.14,22.86-21.17,39.08-23.54,20.39-2.97,37.98,3,52.6,17.57.66.65,1.25,1.36,1.98,2.16Z"/>
      <path d="m172.4,125.53c13.02-12.3,26.65-24.56,39.29-38.18,1.63,1.75,3.38,3.47,4.95,5.35,4.13,4.95,6.96,10.52,7.9,16.98.96,6.64-.24,12.96-2.86,19.04-4.47,10.36-11.58,18.71-20.05,26-.08.07-.18.11-.45.26-9.55-9.77-19.14-19.58-28.78-29.44Z"/>
    </g>
  </g>
</svg>